# xmcd
#
# Track frame offsets:
#	150
#	20744
#	43034
#	60874
#	78493
#	101992
#	118031
#	145551
#	168068
#	182484
#	204010
#
# Disc length: 2998 seconds
#
# Revision: 3
# Processed by: cddbd v1.5.2PL0 Copyright (c) Steve Scherf et al.
# Submitted via: audiograbber 1.83.01
#
DISCID=840bb40b
DTITLE=Jamiroquai - Dynamite
DYEAR=2005
DGENRE=Funk
TTITLE0=Feels Just Like It Should
TTITLE1=Dynamite
TTITLE2=Seven Days In Sunny June
TTITLE3=Electric Mistress
TTITLE4=Starchild
TTITLE5=Love Blind
TTITLE6=Talullah
TTITLE7=(Don't) Give Hate A Chance
TTITLE8=World That He Wants
TTITLE9=Black Devils Car
TTITLE10=Hot Tequila Brown
EXTD=
EXTT0=
EXTT1=
EXTT2=
EXTT3=
EXTT4=
EXTT5=
EXTT6=
EXTT7=
EXTT8=
EXTT9=
EXTT10=
PLAYORDER=
